<?xml version="1.0"?>
<svg xmlns="http://www.w3.org/2000/svg" xmlns:xlink="http://www.w3.org/1999/xlink" version="1.1" viewBox="0 0 224 224" width="500px" height="500px"><g fill="none" fill-rule="nonzero" stroke="none" stroke-width="1" stroke-linecap="butt" stroke-linejoin="miter" stroke-miterlimit="10" stroke-dasharray="" stroke-dashoffset="0" font-family="none" font-weight="none" font-size="none" text-anchor="none" style="mix-blend-mode: normal"><path d="M0,224v-224h224v224z" fill="none"/><path d="M112,210.56c-54.43318,0 -98.56,-44.12682 -98.56,-98.56v0c0,-54.43318 44.12682,-98.56 98.56,-98.56v0c54.43318,0 98.56,44.12682 98.56,98.56v0c0,54.43318 -44.12682,98.56 -98.56,98.56z" fill="#cccccc"/><g fill="#000000"><g id="surface1"><path d="M59.36364,44.99765c-0.03413,0.01137 -0.05687,0.07963 -0.091,0.091c-0.07963,0.01137 -0.19337,-0.02275 -0.273,0c-0.61425,0.06825 -1.183,0.3185 -1.638,0.728c-1.9565,1.06925 -3.185,3.26463 -3.185,5.642v121.667c0,1.80863 0.79625,3.70825 2.275,4.823c0.6825,0.76213 1.71763,1.10337 2.73,0.91c1.33087,0.06825 2.73,-0.2275 3.913,-0.91c2.46837,-1.43325 52.871,-30.576 52.871,-30.576l26.299,-15.197c0.05687,-0.02275 0.12513,-0.05687 0.182,-0.091l0.364,-0.182c0,0 0.35263,-0.182 0.364,-0.182c0.03413,-0.03413 0.05687,-0.05687 0.091,-0.091c0.78487,-0.455 22.32913,-12.85375 25.298,-14.56c2.0475,-1.183 3.67413,-3.10537 3.64,-5.46c-0.03413,-2.35463 -1.69487,-4.186 -3.549,-5.187c-1.02375,-0.546 -7.66675,-4.34525 -13.832,-7.917c-6.16525,-3.57175 -12.012,-7.007 -12.012,-7.007l-26.845,-15.47c0,0 -48.81013,-28.18725 -51.688,-29.848c-1.01237,-0.58013 -2.16125,-1.0465 -3.276,-1.183c-0.55737,-0.06825 -1.092,-0.091 -1.638,0zM60.00064,52.82365l59.332,58.877l-59.332,58.877zM73.83264,58.37465c14.81025,8.554 39.221,22.659 39.221,22.659l23.478,13.559l-13.104,13.013zM141.71864,97.59565c1.39913,0.819 4.9595,2.88925 10.192,5.915c6.16525,3.57175 12.48975,7.189 14.014,8.008c0.14787,0.07963 0.10237,0.12513 0.182,0.182c-0.11375,0.07963 -0.14787,0.10237 -0.455,0.273c-2.79825,1.61525 -20.94137,12.1485 -23.842,13.832l-14.287,-14.105zM123.42764,115.70465l13.195,13.104l-23.569,13.559c0,0 -23.77375,13.71825 -39.13,22.568z"/></g></g></g></svg>
