<?xml version="1.0" encoding="utf-8"?>
<!-- Generator: Adobe Illustrator 19.0.0, SVG Export Plug-In . SVG Version: 6.00 Build 0)  -->
<svg version="1.1" id="Layer_1" xmlns="http://www.w3.org/2000/svg" xmlns:xlink="http://www.w3.org/1999/xlink" x="0px" y="0px"
	 viewBox="-268 331.3 73.9 130.7" style="enable-background:new -268 331.3 73.9 130.7;" xml:space="preserve">
<style type="text/css">
	.st0{fill:#494242;}
</style>
<path id="icon-3" class="st0" d="M-205.5,462h-51.2c-6.3,0-11.4-5.1-11.4-11.4v-108c0-6.3,5.1-11.4,11.4-11.4h51.2
	c6.3,0,11.4,5.1,11.4,11.4v108C-194.1,456.9-199.2,462-205.5,462z M-199.8,342.6c0-3.1-2.5-5.7-5.7-5.7h-51.2
	c-3.1,0-5.7,2.5-5.7,5.7V354h62.5V342.6z M-199.8,359.7h-62.5v73.9h62.5L-199.8,359.7z M-199.8,439.3h-62.5v11.4
	c0,3.1,2.5,5.7,5.7,5.7h51.2c3.1,0,5.7-2.5,5.7-5.7L-199.8,439.3z M-231.1,453.5c-3.1,0-5.7-2.5-5.7-5.7c0-3.1,2.5-5.7,5.7-5.7
	s5.7,2.5,5.7,5.7l0,0C-225.4,450.9-227.9,453.5-231.1,453.5z M-251,368.2h5.7c1.6,0,2.8,1.3,2.8,2.8c0,0,0,0,0,0v5.7
	c0,1.6-1.3,2.8-2.8,2.8c0,0,0,0,0,0h-5.7c-1.6,0-2.8-1.3-2.8-2.8c0,0,0,0,0,0V371C-253.8,369.5-252.5,368.2-251,368.2
	C-250.9,368.2-250.9,368.2-251,368.2L-251,368.2z M-251,388.1h5.7c1.6,0,2.8,1.3,2.8,2.8c0,0,0,0,0,0v5.7c0,1.6-1.3,2.8-2.8,2.8
	c0,0,0,0,0,0h-5.7c-1.6,0-2.8-1.3-2.8-2.8c0,0,0,0,0,0v-5.7C-253.8,389.4-252.5,388.1-251,388.1C-250.9,388.1-250.9,388.1-251,388.1
	L-251,388.1z M-251,408h5.7c1.6,0,2.8,1.3,2.8,2.8c0,0,0,0,0,0v5.7c0,1.6-1.3,2.8-2.8,2.8c0,0,0,0,0,0h-5.7c-1.6,0-2.8-1.3-2.8-2.8
	c0,0,0,0,0,0v-5.7C-253.8,409.3-252.5,408-251,408C-250.9,408-250.9,408-251,408L-251,408z M-233.9,368.2h5.7c1.6,0,2.8,1.3,2.8,2.8
	c0,0,0,0,0,0v5.7c0,1.6-1.3,2.8-2.8,2.8c0,0,0,0,0,0h-5.7c-1.6,0-2.8-1.3-2.8-2.8c0,0,0,0,0,0V371
	C-236.7,369.5-235.5,368.2-233.9,368.2C-233.9,368.2-233.9,368.2-233.9,368.2z M-233.9,388.1h5.7c1.6,0,2.8,1.3,2.8,2.8c0,0,0,0,0,0
	v5.7c0,1.6-1.3,2.8-2.8,2.8c0,0,0,0,0,0h-5.7c-1.6,0-2.8-1.3-2.8-2.8c0,0,0,0,0,0v-5.7C-236.7,389.4-235.5,388.1-233.9,388.1
	C-233.9,388.1-233.9,388.1-233.9,388.1L-233.9,388.1z M-233.9,408h5.7c1.6,0,2.8,1.3,2.8,2.8c0,0,0,0,0,0v5.7c0,1.6-1.3,2.8-2.8,2.8
	c0,0,0,0,0,0h-5.7c-1.6,0-2.8-1.3-2.8-2.8c0,0,0,0,0,0v-5.7C-236.7,409.3-235.5,408-233.9,408C-233.9,408-233.9,408-233.9,408
	L-233.9,408z M-216.8,368.2h5.7c1.6,0,2.8,1.3,2.8,2.8c0,0,0,0,0,0v5.7c0,1.6-1.3,2.8-2.8,2.8c0,0,0,0,0,0h-5.7
	c-1.6,0-2.8-1.3-2.8-2.8c0,0,0,0,0,0V371C-219.7,369.5-218.4,368.2-216.8,368.2C-216.8,368.2-216.8,368.2-216.8,368.2z
	 M-216.8,388.1h5.7c1.6,0,2.8,1.3,2.8,2.8c0,0,0,0,0,0v5.7c0,1.6-1.3,2.8-2.8,2.8c0,0,0,0,0,0h-5.7c-1.6,0-2.8-1.3-2.8-2.8
	c0,0,0,0,0,0v-5.7C-219.7,389.4-218.4,388.1-216.8,388.1C-216.8,388.1-216.8,388.1-216.8,388.1L-216.8,388.1z M-239.6,342.6h17.1
	c1.6,0,2.8,1.3,2.8,2.8c0,1.6-1.3,2.8-2.8,2.8h-17.1c-1.6,0-2.8-1.3-2.8-2.8C-242.4,343.9-241.1,342.6-239.6,342.6z"/>
</svg>
